<svg xmlns="http://www.w3.org/2000/svg" viewBox="0 0 14 16"><defs><linearGradient id="p" x2="0" y2="1"><stop stop-color="#fff"/><stop offset="1" stop-color="#f3f3f3"/></linearGradient><linearGradient id="f" x1="0" y1="0" x2="1" y2="1"><stop stop-color="#e2e2e2"/><stop offset=".5" stop-color="#fafafa"/></linearGradient></defs><path d="M2.8.9h4.7l5.6 5.6v7.1a1.6 1.6 0 0 1-1.6 1.6H2.8a1.6 1.6 0 0 1-1.6-1.6v-11A1.6 1.6 0 0 1 2.8.9z" fill="url(#p)"/><path d="M7.5.9v4a1.6 1.6 0 0 0 1.6 1.6h4z" fill="url(#f)"/><path d="M3 4.6h3" stroke="#5bc0de" stroke-width=".5" opacity=".8"/><path d="M3 5.5h1.8" stroke="#e8577d" stroke-width=".5" opacity=".8"/><path d="M3 6.5H9.9M3 7.3H10.6M3 8.1H10.6M3 8.9H9.9M3 9.7H9.9M3 10.5H9.9M3 11.3H9.9M3 12.1H10.6" stroke="#a5a5b5" stroke-width="0.45"/></svg>