<svg xmlns="http://www.w3.org/2000/svg" width="180" height="47" viewBox="0 0 180 47"><circle cx="2" cy="17" r="2"/><circle cx="2" cy="23" r="2"/><circle cx="2" cy="29" r="2"/><g fill="none" stroke="#000" stroke-width="2" stroke-linecap="round" stroke-linejoin="round" transform="translate(35 16)"><path d="M6.5 13.5H3A2 2 0 0 1 1 11.5V3A2 2 0 0 1 3 1h2.6c.6 0 1.1.3 1.4.8l.3.5c.3.5.8.8 1.4.8h3.8A2 2 0 0 1 14.5 5.2V6.5"/><circle cx="11" cy="10.3" r="2.6" stroke-width="1.8"/><path d="M13 12.3L14.6 14"/></g><path d="M79 25h8v2h-8z"/><path fill-rule="evenodd" d="M116 19h8v8h-8zM118 21v4h4v-4z"/><path d="M153.4 19.4l7.2 7.2M160.6 19.4l-7.2 7.2" stroke="#000" stroke-width="2" fill="none"/></svg>
